<?xml version="1.0" encoding="UTF-8" standalone="no"?>
<svg width="24px" height="24px" viewBox="0 0 24 24" version="1.1" xmlns="http://www.w3.org/2000/svg" xmlns:xlink="http://www.w3.org/1999/xlink">
    <!-- Generator: Sketch 43.1 (39012) - http://www.bohemiancoding.com/sketch -->
    <title>zs_svg_clear</title>
    <desc>Created with Sketch.</desc>
    <defs></defs>
    <g id="Page-1" stroke="none" stroke-width="1" fill="none" fill-rule="evenodd">
        <g id="slice" transform="translate(-1179.000000, -162.000000)">
            <g id="Group-7" transform="translate(1179.000000, 162.000000)">
                <g id="ic_clear_dark">
                    <g id="zs_svg_clear">
                        <g id="Group-30" transform="translate(4.000000, 4.000000)" fill-opacity="0.54" fill="#000000">
                            <path d="M6.79494356,8.00976803 L0.0158139461,14.7979184 L1.21789551,16 L7.99741001,9.21146419 L14.7902973,16 L15.9923788,14.7979184 L9.19869206,8.00858363 L15.9961489,1.20208156 L14.7940674,-5.86197757e-14 L7.99622561,6.80688747 L1.20208156,0.0170956844 L-4.54747351e-13,1.21917725 L6.79494356,8.00976803 Z" id="Combined-Shape"></path>
                        </g>
                        <rect x="0" y="0" width="24" height="24"></rect>
                    </g>
                </g>
                <g id="zs_svg_clear">
                    <g id="Group-30" transform="translate(4.000000, 4.000000)" fill-opacity="0.54" fill="#000000">
                        <path d="M6.79494356,8.00976803 L0.0158139461,14.7979184 L1.21789551,16 L7.99741001,9.21146419 L14.7902973,16 L15.9923788,14.7979184 L9.19869206,8.00858363 L15.9961489,1.20208156 L14.7940674,-5.86197757e-14 L7.99622561,6.80688747 L1.20208156,0.0170956844 L-4.54747351e-13,1.21917725 L6.79494356,8.00976803 Z" id="Combined-Shape"></path>
                    </g>
                    <rect x="0" y="0" width="24" height="24"></rect>
                </g>
            </g>
        </g>
    </g>
</svg>