<?xml version="1.0" encoding="UTF-8" standalone="no"?>
<svg width="24px" height="24px" viewBox="0 0 24 24" version="1.1" xmlns="http://www.w3.org/2000/svg" xmlns:xlink="http://www.w3.org/1999/xlink">
    <!-- Generator: Sketch 43.1 (39012) - http://www.bohemiancoding.com/sketch -->
    <title>zs_svg_square</title>
    <desc>Created with Sketch.</desc>
    <defs></defs>
    <g id="Page-1" stroke="none" stroke-width="1" fill="none" fill-rule="evenodd">
        <g id="bg2" transform="translate(-289.000000, -285.000000)"></g>
        <g id="1_order-service" transform="translate(-20.000000, -96.000000)">
            <rect id="Rectangle" fill="#F2F4F4" x="0" y="0" width="360" height="640"></rect>
            <g id="row" transform="translate(0.000000, 80.000000)">
                <rect id="row-bounds" fill="#FFFFFF" x="0" y="0" width="360" height="56"></rect>
                <g id="zs_svg_square" transform="translate(20.000000, 16.000000)">
                    <g id="Group-26" transform="translate(2.000000, 2.000000)" fill="">
                        <path d="M4,17.5 L4,9 L5.5,9 L5.5,17.5 L9.25,17.5 L9.25,9 L10.75,9 L10.75,17.5 L14.5,17.5 L14.5,9 L16,9 L16,17.5 L18,17.5 L18,19 L2,19 L2,17.5 L4,17.5 Z M0.5,5 L10,0 L19.5,5 L19.5,7.5 L0.5,7.5 L0.5,5 Z M10,1.69507189 L1.81305431,6.00399067 L18.191211,6.0002953 L10,1.69507189 Z" id="Combined-Shape"></path>
                    </g>
                    <polygon fill="#FF0000" opacity="0" points="0 0 24 0 24 24 0 24"></polygon>
                </g>
            </g>
        </g>
    </g>
</svg>