<?xml version="1.0" encoding="UTF-8" standalone="no"?>
<svg width="24px" height="24px" viewBox="0 0 24 24" version="1.1" xmlns="http://www.w3.org/2000/svg" xmlns:xlink="http://www.w3.org/1999/xlink">
    <!-- Generator: Sketch 43.1 (39012) - http://www.bohemiancoding.com/sketch -->
    <title>zs_svg_fab_add</title>
    <desc>Created with Sketch.</desc>
    <defs>
        <circle id="path-1" cx="36" cy="36" r="28"></circle>
        <filter x="-25.0%" y="-17.9%" width="150.0%" height="150.0%" filterUnits="objectBoundingBox" id="filter-2">
            <feOffset dx="0" dy="4" in="SourceAlpha" result="shadowOffsetOuter1"></feOffset>
            <feGaussianBlur stdDeviation="4" in="shadowOffsetOuter1" result="shadowBlurOuter1"></feGaussianBlur>
            <feColorMatrix values="0 0 0 0 0   0 0 0 0 0   0 0 0 0 0  0 0 0 0.12 0" type="matrix" in="shadowBlurOuter1"></feColorMatrix>
        </filter>
    </defs>
    <g id="Page-1" stroke="none" stroke-width="1" fill="none" fill-rule="evenodd">
        <g id="slice" transform="translate(-42.000000, -531.000000)">
            <g id="FAB" transform="translate(18.000000, 507.000000)">
                <g id="Oval-14">
                    <use fill="black" fill-opacity="1" filter="url(#filter-2)" xlink:href="#path-1"></use>
                    <use fill="#505FEB" fill-rule="evenodd" xlink:href="#path-1"></use>
                </g>
                <g id="zs_svg_fab_add" transform="translate(24.000000, 24.000000)">
                    <g id="bt_fab_add">
                        <g id="zs_svg_fab_add" transform="translate(1.000000, 1.000000)" fill="#FFFFFF">
                            <rect id="Combined-Shape" x="0" y="10" width="22" height="2"></rect>
                            <polygon id="Rectangle-88" transform="translate(11.000000, 11.000000) rotate(-90.000000) translate(-11.000000, -11.000000) " points="0 10 22 10 22 12 0 12"></polygon>
                        </g>
                        <polygon id="zs_svg_fab_add" points="0 0 24 0 24 24 0 24"></polygon>
                    </g>
                </g>
                <g id="bt_fab_add" transform="translate(24.000000, 24.000000)">
                    <g id="zs_svg_fab_add" transform="translate(1.000000, 1.000000)" fill="#FFFFFF">
                        <rect id="Combined-Shape" x="0" y="10" width="22" height="2"></rect>
                        <polygon id="Rectangle-88" transform="translate(11.000000, 11.000000) rotate(-90.000000) translate(-11.000000, -11.000000) " points="0 10 22 10 22 12 0 12"></polygon>
                    </g>
                    <polygon id="zs_svg_fab_add" points="0 0 24 0 24 24 0 24"></polygon>
                </g>
            </g>
        </g>
    </g>
</svg>